<svg xmlns="http://www.w3.org/2000/svg" viewBox="0 0 64 64"><title>Artboard-20</title><g id="Checklist"><path d="M58,10H56a1,1,0,0,0-1,1v3A2,2,0,0,1,52.853,16,2.13,2.13,0,0,1,51,13.831V11a1,1,0,0,0-1-1H42a1,1,0,0,0-1,1v3A2,2,0,0,1,38.853,16,2.13,2.13,0,0,1,37,13.831V11a1,1,0,0,0-1-1H28a1,1,0,0,0-1,1v3a1.983,1.983,0,0,1-.587,1.413,2.006,2.006,0,0,1-1.56.582A2.13,2.13,0,0,1,23,13.831V11a1,1,0,0,0-1-1H14a1,1,0,0,0-1,1v3a1.983,1.983,0,0,1-.587,1.413,2,2,0,0,1-1.56.582A2.13,2.13,0,0,1,9,13.831V11a1,1,0,0,0-1-1H6a6.006,6.006,0,0,0-6,6V54a6.006,6.006,0,0,0,6,6H51A13.015,13.015,0,0,0,64,47V16A6.006,6.006,0,0,0,58,10Z" style="fill:#e6edff"/><path d="M58,10H56a1,1,0,0,0-1,1v3A2,2,0,0,1,52.853,16,2.13,2.13,0,0,1,51,13.831V11a1,1,0,0,0-1-1H42a1,1,0,0,0-1,1v3A2,2,0,0,1,38.853,16,2.13,2.13,0,0,1,37,13.831V11a1,1,0,0,0-1-1H28a1,1,0,0,0-1,1v3a1.983,1.983,0,0,1-.587,1.413,2.006,2.006,0,0,1-1.56.582A2.13,2.13,0,0,1,23,13.831V11a1,1,0,0,0-1-1H14a1,1,0,0,0-1,1v3a1.983,1.983,0,0,1-.587,1.413,2,2,0,0,1-1.56.582A2.13,2.13,0,0,1,9,13.831V11a1,1,0,0,0-1-1H6a6.006,6.006,0,0,0-6,6v4H64V16A6.006,6.006,0,0,0,58,10Z" style="fill:#e63b47"/><path d="M11,4A4,4,0,0,0,7,8v6a4,4,0,0,0,8,0V8A4,4,0,0,0,11,4Z" style="fill:#4aa4f2"/><path d="M25,4a4,4,0,0,0-4,4v6a4,4,0,0,0,8,0V8A4,4,0,0,0,25,4Z" style="fill:#4aa4f2"/><path d="M39,4a4,4,0,0,0-4,4v6a4,4,0,0,0,8,0V8A4,4,0,0,0,39,4Z" style="fill:#4aa4f2"/><path d="M53,4a4,4,0,0,0-4,4v6a4,4,0,0,0,8,0V8A4,4,0,0,0,53,4Z" style="fill:#4aa4f2"/><rect x="29" y="49" width="6" height="6" rx="1" ry="1" style="fill:#a8b7d4"/><rect x="21" y="49" width="6" height="6" rx="1" ry="1" style="fill:#a8b7d4"/><rect x="13" y="49" width="6" height="6" rx="1" ry="1" style="fill:#a8b7d4"/><rect x="5" y="49" width="6" height="6" rx="1" ry="1" style="fill:#a8b7d4"/><rect x="29" y="41" width="6" height="6" rx="1" ry="1" style="fill:#a8b7d4"/><rect x="21" y="41" width="6" height="6" rx="1" ry="1" style="fill:#a8b7d4"/><rect x="13" y="41" width="6" height="6" rx="1" ry="1" style="fill:#a8b7d4"/><rect x="5" y="41" width="6" height="6" rx="1" ry="1" style="fill:#a8b7d4"/><rect x="29" y="33" width="6" height="6" rx="1" ry="1" style="fill:#a8b7d4"/><rect x="21" y="33" width="6" height="6" rx="1" ry="1" style="fill:#a8b7d4"/><rect x="13" y="33" width="6" height="6" rx="1" ry="1" style="fill:#a8b7d4"/><rect x="5" y="33" width="6" height="6" rx="1" ry="1" style="fill:#a8b7d4"/><path d="M58,29H6a1,1,0,0,0,0,2H58a1,1,0,0,0,0-2Z" style="fill:#a8b7d4"/><path d="M6,27h4a1,1,0,0,0,0-2H6a1,1,0,0,0,0,2Z" style="fill:#a8b7d4"/><path d="M14,27h4a1,1,0,0,0,0-2H14a1,1,0,0,0,0,2Z" style="fill:#a8b7d4"/><path d="M22,27h4a1,1,0,0,0,0-2H22a1,1,0,0,0,0,2Z" style="fill:#a8b7d4"/><path d="M30,27h4a1,1,0,0,0,0-2H30a1,1,0,0,0,0,2Z" style="fill:#a8b7d4"/><path d="M38,27h4a1,1,0,0,0,0-2H38a1,1,0,0,0,0,2Z" style="fill:#a8b7d4"/><path d="M46,27h4a1,1,0,0,0,0-2H46a1,1,0,0,0,0,2Z" style="fill:#a8b7d4"/><path d="M54,27h4a1,1,0,0,0,0-2H54a1,1,0,0,0,0,2Z" style="fill:#a8b7d4"/><rect x="37" y="33" width="6" height="6" rx="1" ry="1" style="fill:#a8b7d4"/><circle cx="51" cy="47" r="13" style="fill:#4aa4f2"/><path d="M49,52a1,1,0,0,1-.707-.293l-4-4a1,1,0,0,1,1.414-1.414L49,49.586l7.293-7.293a1,1,0,0,1,1.414,1.414l-8,8A1,1,0,0,1,49,52Z" style="fill:#2a72db"/></g></svg>